<svg xmlns="http://www.w3.org/2000/svg" viewBox="0 0 1200 320" width="1200" height="320" role="img" aria-labelledby="t d" xmlns:c2pa="http://c2pa.org/manifest"><metadata><c2pa:manifest>AAAWgmp1bWIAAAAeanVtZGMycGEAEQAQgAAAqgA4m3EDYzJwYQAAABZcanVtYgAAAEdqdW1kYzJtYQARABCAAACqADibcQN1cm46YzJwYTpiOWQwNDc0Yy01NTVlLTQ1OWEtYjZhNi1mYzJiMzY4ZWM3M2IAAAADl2p1bWIAAAApanVtZGMyYXMAEQAQgAAAqgA4m3EDYzJwYS5hc3NlcnRpb25zAAAAALxqdW1iAAAARGp1bWRjYm9yABEAEIAAAKoAOJtxE2MycGEuaW5ncmVkaWVudC52MwAAAAAYYzJzaKRO5/qG/VarVc4ii4u1NYsAAABwY2JvcqNpZGM6Zm9ybWF0bWltYWdlL3N2Zyt4bWxqaW5zdGFuY2VJRHgseG1wOmlpZDo1NzdiZjI5ZC0xYmIwLTRhODEtOTM4MC1mZWQxYjM0OWY0MTlscmVsYXRpb25zaGlwaHBhcmVudE9mAAAB4mp1bWIAAABBanVtZGNib3IAEQAQgAAAqgA4m3ETYzJwYS5hY3Rpb25zLnYyAAAAABhjMnNos1RTLai88RQ4vlRgAhv0TAAAAZljYm9yomdhY3Rpb25zgqJmYWN0aW9ua2MycGEub3BlbmVkanBhcmFtZXRlcnOha2luZ3JlZGllbnRzgaJjdXJseC1zZWxmI2p1bWJmPWMycGEuYXNzZXJ0aW9ucy9jMnBhLmluZ3JlZGllbnQudjNkaGFzaFggVOgLpM4OJJLn1jUP1duTvchAPr4FLBLOgHDUOVquKFCkZmFjdGlvbngdY29tLmFudGhyb3BpYy5jbGF1ZGUucHJvdmlkZWRqcGFyYW1ldGVyc6F4H2NvbS5hbnRocm9waWMub3JpZ2luLWNvbmZpZGVuY2VndW5rbm93bmtkZXNjcmlwdGlvbnhmQ2xhdWRlIHByb3ZpZGVkIHRoaXMgZmlsZSBhdCB0aGUgcmVxdWVzdCBvZiBhIHVzZXIgYW5kIG1heSBoYXZlIGNyZWF0ZWQgb3IgbW9kaWZpZWQgdGhlIGZpbGUgY29udGVudHMubXNvZnR3YXJlQWdlbnShZG5hbWVmQ2xhdWRlcmFsbEFjdGlvbnNJbmNsdWRlZPUAAADIanVtYgAAAEBqdW1kY2JvcgARABCAAACqADibcRNjMnBhLmhhc2guZGF0YQAAAAAYYzJzaE5KQXkbk8OJx1t5yWZ9K6sAAACAY2JvcqVjYWxnZnNoYTI1NmNwYWRNAAAAAAAAAAAAAAAAAGRoYXNoWCCO0+shekcSMuMzfl4n3F+m2mJ2pQyFTmyOeHDxe0WFdmRuYW1lbmp1bWJmIG1hbmlmZXN0amV4Y2x1c2lvbnOBomVzdGFydBi5Zmxlbmd0aBkeBAAAAj5qdW1iAAAAJ2p1bWRjMmNsABEAEIAAAKoAOJtxA2MycGEuY2xhaW0udjIAAAACD2Nib3KlY2FsZ2ZzaGEyNTZpc2lnbmF0dXJleE1zZWxmI2p1bWJmPS9jMnBhL3VybjpjMnBhOmI5ZDA0NzRjLTU1NWUtNDU5YS1iNmE2LWZjMmIzNjhlYzczYi9jMnBhLnNpZ25hdHVyZWppbnN0YW5jZUlEeCx4bXA6aWlkOmFlYzAzMTYwLTI3ZTItNDRkYy1iMWFjLTk0MTVkYWFjNDZkMXJjcmVhdGVkX2Fzc2VydGlvbnODomN1cmx4LXNlbGYjanVtYmY9YzJwYS5hc3NlcnRpb25zL2MycGEuaW5ncmVkaWVudC52M2RoYXNoWCBU6Aukzg4kkufWNQ/V25O9yEA+vgUsEs6AcNQ5Wq4oUKJjdXJseCpzZWxmI2p1bWJmPWMycGEuYXNzZXJ0aW9ucy9jMnBhLmFjdGlvbnMudjJkaGFzaFgg0J5+yzx7JbkOLqylghz9sYdXGQ9VHORjDm7OebR/OTGiY3VybHgpc2VsZiNqdW1iZj1jMnBhLmFzc2VydGlvbnMvYzJwYS5oYXNoLmRhdGFkaGFzaFggnPofDBtT5Ank4mG9yikCsEqoTT7L2hruOCeS9la5EkN0Y2xhaW1fZ2VuZXJhdG9yX2luZm+jZG5hbWVvQW50aHJvcGljIEZpbGVzZ3ZlcnNpb25lMS4wLjBrc3BlY1ZlcnNpb25lMi40LjAAABA4anVtYgAAAChqdW1kYzJjcwARABCAAACqADibcQNjMnBhLnNpZ25hdHVyZQAAABAIY2JvctKEWQISogEmGCFZAgowggIGMIIBjaADAgECAhRA5aAK7sI50L64g/oGQgU9Z1UTADAKBggqhkjOPQQDAzBJMRcwFQYDVQQKEw5BbnRocm9waWMsIFBCQzEuMCwGA1UEAxMlQW50aHJvcGljIENvbnRlbnQgQ3JlZGVudGlhbHMgUm9vdCBDQTAeFw0yNjA4MDcxODQzNTZaFw0yODA4MDYxOTQzNTZaMEQxFzAVBgNVBAoTDkFudGhyb3BpYywgUEJDMSkwJwYDVQQDEyBBbnRocm9waWMgQ2xhdWRlIENvbnRlbnQgU2lnbmluZzBZMBMGByqGSM49AgEGCCqGSM49AwEHA0IABJh6CmvLUBgFFNU0vUKlOVtE6djd17L5SuwX0LemFisBM3dkd/3cyjxFA3Qo5S46fX0/ihY0VZ7mfb9KF703t5OjWDBWMA4GA1UdDwEB/wQEAwIHgDAVBgNVHSUEDjAMBgorBgEEAYPoXgIBMAwGA1UdEwEB/wQCMAAwHwYDVR0jBBgwFoAUzlHiBIFOZFsj+OPEz5o+nMHXXMIwCgYIKoZIzj0EAwMDZwAwZAIwMXMdFJ4BetLLVY7ORuE9noqbbAZOZn/aArXyTwFAZfKrPzxF2vPoJNf1+UCdg1XGAjBwX1zd9WGqYkqmL5SFqw1QySjr1zJfpJM9+1rdDwSPLMOPOjKuiXjoU/pUUeG9RwmhY3BhZFkNngAAAAAAAAAAAAAAAAAAAAAAAAAAAAAAAAAAAAAAAAAAAAAAAAAAAAAAAAAAAAAAAAAAAAAAAAAAAAAAAAAAAAAAAAAAAAAAAAAAAAAAAAAAAAAAAAAAAAAAAAAAAAAAAAAAAAAAAAAAAAAAAAAAAAAAAAAAAAAAAAAAAAAAAAAAAAAAAAAAAAAAAAAAAAAAAAAAAAAAAAAAAAAAAAAAAAAAAAAAAAAAAAAAAAAAAAAAAAAAAAAAAAAAAAAAAAAAAAAAAAAAAAAAAAAAAAAAAAAAAAAAAAAAAAAAAAAAAAAAAAAAAAAAAAAAAAAAAAAAAAAAAAAAAAAAAAAAAAAAAAAAAAAAAAAAAAAAAAAAAAAAAAAAAAAAAAAAAAAAAAAAAAAAAAAAAAAAAAAAAAAAAAAAAAAAAAAAAAAAAAAAAAAAAAAAAAAAAAAAAAAAAAAAAAAAAAAAAAAAAAAAAAAAAAAAAAAAAAAAAAAAAAAAAAAAAAAAAAAAAAAAAAAAAAAAAAAAAAAAAAAAAAAAAAAAAAAAAAAAAAAAAAAAAAAAAAAAAAAAAAAAAAAAAAAAAAAAAAAAAAAAAAAAAAAAAAAAAAAAAAAAAAAAAAAAAAAAAAAAAAAAAAAAAAAAAAAAAAAAAAAAAAAAAAAAAAAAAAAAAAAAAAAAAAAAAAAAAAAAAAAAAAAAAAAAAAAAAAAAAAAAAAAAAAAAAAAAAAAAAAAAAAAAAAAAAAAAAAAAAAAAAAAAAAAAAAAAAAAAAAAAAAAAAAAAAAAAAAAAAAAAAAAAAAAAAAAAAAAAAAAAAAAAAAAAAAAAAAAAAAAAAAAAAAAAAAAAAAAAAAAAAAAAAAAAAAAAAAAAAAAAAAAAAAAAAAAAAAAAAAAAAAAAAAAAAAAAAAAAAAAAAAAAAAAAAAAAAAAAAAAAAAAAAAAAAAAAAAAAAAAAAAAAAAAAAAAAAAAAAAAAAAAAAAAAAAAAAAAAAAAAAAAAAAAAAAAAAAAAAAAAAAAAAAAAAAAAAAAAAAAAAAAAAAAAAAAAAAAAAAAAAAAAAAAAAAAAAAAAAAAAAAAAAAAAAAAAAAAAAAAAAAAAAAAAAAAAAAAAAAAAAAAAAAAAAAAAAAAAAAAAAAAAAAAAAAAAAAAAAAAAAAAAAAAAAAAAAAAAAAAAAAAAAAAAAAAAAAAAAAAAAAAAAAAAAAAAAAAAAAAAAAAAAAAAAAAAAAAAAAAAAAAAAAAAAAAAAAAAAAAAAAAAAAAAAAAAAAAAAAAAAAAAAAAAAAAAAAAAAAAAAAAAAAAAAAAAAAAAAAAAAAAAAAAAAAAAAAAAAAAAAAAAAAAAAAAAAAAAAAAAAAAAAAAAAAAAAAAAAAAAAAAAAAAAAAAAAAAAAAAAAAAAAAAAAAAAAAAAAAAAAAAAAAAAAAAAAAAAAAAAAAAAAAAAAAAAAAAAAAAAAAAAAAAAAAAAAAAAAAAAAAAAAAAAAAAAAAAAAAAAAAAAAAAAAAAAAAAAAAAAAAAAAAAAAAAAAAAAAAAAAAAAAAAAAAAAAAAAAAAAAAAAAAAAAAAAAAAAAAAAAAAAAAAAAAAAAAAAAAAAAAAAAAAAAAAAAAAAAAAAAAAAAAAAAAAAAAAAAAAAAAAAAAAAAAAAAAAAAAAAAAAAAAAAAAAAAAAAAAAAAAAAAAAAAAAAAAAAAAAAAAAAAAAAAAAAAAAAAAAAAAAAAAAAAAAAAAAAAAAAAAAAAAAAAAAAAAAAAAAAAAAAAAAAAAAAAAAAAAAAAAAAAAAAAAAAAAAAAAAAAAAAAAAAAAAAAAAAAAAAAAAAAAAAAAAAAAAAAAAAAAAAAAAAAAAAAAAAAAAAAAAAAAAAAAAAAAAAAAAAAAAAAAAAAAAAAAAAAAAAAAAAAAAAAAAAAAAAAAAAAAAAAAAAAAAAAAAAAAAAAAAAAAAAAAAAAAAAAAAAAAAAAAAAAAAAAAAAAAAAAAAAAAAAAAAAAAAAAAAAAAAAAAAAAAAAAAAAAAAAAAAAAAAAAAAAAAAAAAAAAAAAAAAAAAAAAAAAAAAAAAAAAAAAAAAAAAAAAAAAAAAAAAAAAAAAAAAAAAAAAAAAAAAAAAAAAAAAAAAAAAAAAAAAAAAAAAAAAAAAAAAAAAAAAAAAAAAAAAAAAAAAAAAAAAAAAAAAAAAAAAAAAAAAAAAAAAAAAAAAAAAAAAAAAAAAAAAAAAAAAAAAAAAAAAAAAAAAAAAAAAAAAAAAAAAAAAAAAAAAAAAAAAAAAAAAAAAAAAAAAAAAAAAAAAAAAAAAAAAAAAAAAAAAAAAAAAAAAAAAAAAAAAAAAAAAAAAAAAAAAAAAAAAAAAAAAAAAAAAAAAAAAAAAAAAAAAAAAAAAAAAAAAAAAAAAAAAAAAAAAAAAAAAAAAAAAAAAAAAAAAAAAAAAAAAAAAAAAAAAAAAAAAAAAAAAAAAAAAAAAAAAAAAAAAAAAAAAAAAAAAAAAAAAAAAAAAAAAAAAAAAAAAAAAAAAAAAAAAAAAAAAAAAAAAAAAAAAAAAAAAAAAAAAAAAAAAAAAAAAAAAAAAAAAAAAAAAAAAAAAAAAAAAAAAAAAAAAAAAAAAAAAAAAAAAAAAAAAAAAAAAAAAAAAAAAAAAAAAAAAAAAAAAAAAAAAAAAAAAAAAAAAAAAAAAAAAAAAAAAAAAAAAAAAAAAAAAAAAAAAAAAAAAAAAAAAAAAAAAAAAAAAAAAAAAAAAAAAAAAAAAAAAAAAAAAAAAAAAAAAAAAAAAAAAAAAAAAAAAAAAAAAAAAAAAAAAAAAAAAAAAAAAAAAAAAAAAAAAAAAAAAAAAAAAAAAAAAAAAAAAAAAAAAAAAAAAAAAAAAAAAAAAAAAAAAAAAAAAAAAAAAAAAAAAAAAAAAAAAAAAAAAAAAAAAAAAAAAAAAAAAAAAAAAAAAAAAAAAAAAAAAAAAAAAAAAAAAAAAAAAAAAAAAAAAAAAAAAAAAAAAAAAAAAAAAAAAAAAAAAAAAAAAAAAAAAAAAAAAAAAAAAAAAAAAAAAAAAAAAAAAAAAAAAAAAAAAAAAAAAAAAAAAAAAAAAAAAAAAAAAAAAAAAAAAAAAAAAAAAAAAAAAAAAAAAAAAAAAAAAAAAAAAAAAAAAAAAAAAAAAAAAAAAAAAAAAAAAAAAAAAAAAAAAAAAAAAAAAAAAAAAAAAAAAAAAAAAAAAAAAAAAAAAAAAAAAAAAAAAAAAAAAAAAAAAAAAAAAAAAAAAAAAAAAAAAAAAAAAAAAAAAAAAAAAAAAAAAAAAAAAAAAAAAAAAAAAAAAAAAAAAAAAAAAAAAAAAAAAAAAAAAAAAAAAAAAAAAAAAAAAAAAAAAAAAAAAAAAAAAAAAAAAAAAAAAAAAAAAAAAAAAAAAAAAAAAAAAAAAAAAAAAAAAAAAAAAAAAAAAAAAAAAAAAAAAAAAAAAAAAAAAAAAAAAAAAAAAAAAAAAAAAAAAAAAAAAAAAAAAAAAAAAAAAAAAAAAAAAAAAAAAAAAAAAAAAAAAAAAAAAAAAAAAAAAAAAAAAAAAAAAAAAAAAAAAAAAAAAAAAAAAAAAAAAAAAAAAAAAAAAAAAAAAAAAAAAAAAAAAAAAAAAAAAAAAAAAAAAAAAAAAAAAAAAAAAAAAAAAAAAAAAAAAAAAAAAAAAAAAAAAAAAAAAAAAAAAAAAAAAAAAAAAAAAAAAAAAAAAAAAAAAAAAAAAAAAAAAAAAAAAAAAAAAAAAAAAAAAAAAAAAAAAAAAAAAAAAAAAAAAAAAAAAAAAAAAAAAAAAAAAAAAAAAAAAAAAAAAAAAAAAAAAAAAAAAAAAAAAAAAAAAAAAAAAAAAAAAAAAAAAAAAAAAAAAAAAAAAAAAAAAAAAAAAAAAAAAAAAAAAAAAAAAAAAAAAAAAAAAAAAAAAAAAAAAAAAAAAAAAAAAAAAAAAAAAAAAAAAAAAAAAAAAAAAAAAAAAAAAAAAAAAAAAAAAAAAAAAAAAAAAAAAAAAAAAAAAAAAAAAAAAAAAAAAAAAAAAAAAAAAAAAAAAAAAAAAAAAAAAAAAAAAAAAAAAAAAAAAAAAAAAAAAAAAAAAAAAAAAAAAAAAAAAAAAAAAAAAAAAAAAAAAAAAAAAAAAAAAAAAAAAAAAAAAAAAAAAAAAAAAAAAAAAAAAAAAAAAAAAAAAAAAAAAAAAAAAAAAAAAAAAAAAAAAAAAAAAAAAAAAAAAAAAAAAAAAAAAAAAAAAAAAAAAAAAAAAAAAAAAAAAAAAAAAAAAAAAAAAAAAAAAAAAAAAAAAAAAAAAAAAAAAAAAAAAAAAAAAAAAAAAAAAAAAAAAAAAAAAAAAAAAAAAAAAAAAAAAAAAAAAAAAAAAAAAAAAAAAAAAAAAAAAAAAAAAAAAAAAAAAAAAAAAAAAAAAAAAAAAAAAAAAAAAAAAAAAAAAAAAAAAAAAAAAAAAAAAAAAAAAAAAAAAAAAAAAAAAAAAAAAAAAAAAAAAAAAAAAAAAAAAAAAAAAAAAAAAAAAAAAAAAAAAAAAAAAAAAAAAAAAAAAAAAAAAAAAAAAAAAAAAAAAAAAAAAAAAAAAAAAAAAAAAAAAAAAAAAAAAAAAAAAAAAAAAAAAAAAAAAAAAAAAAAAAAAAAAAAAAAAAAAAAAAAAAAAAAAAAAAAAAAAAAAAAAAAAAAAAAAAAPZYQJs/59Qsv819jaEBTxXHzHCLzhK9zyrJbhT87VYbM3/HXDH1irSBXUXCySQ4Dq/G2+vwXOddgn2NjTHOjih3ynE=</c2pa:manifest></metadata>
  <title id="t">Daemanic &#183; Cybersecurity</title>
  <desc id="d">Hero banner with an animated shield and padlock motif</desc>
  <defs>
    <linearGradient id="bg" x1="0" y1="0" x2="1" y2="1">
      <stop offset="0" class="s1"/>
      <stop offset="1" class="s2"/>
    </linearGradient>
    <radialGradient id="glow" cx="0.8" cy="0.5" r="0.45">
      <stop offset="0" stop-color="#7DB4F2" stop-opacity="0.20"/>
      <stop offset="1" stop-color="#7DB4F2" stop-opacity="0"/>
    </radialGradient>
    <linearGradient id="scan" x1="0" y1="0" x2="0" y2="1">
      <stop offset="0" stop-color="#7DB4F2" stop-opacity="0"/>
      <stop offset="1" stop-color="#7DB4F2" stop-opacity="0.55"/>
    </linearGradient>
    <clipPath id="shield">
      <path d="M960 65 L1035 92 V165 C1035 210 1000 238 960 255 C920 238 885 210 885 165 V92 Z"/>
    </clipPath>
  </defs>
  <style>
    .s1{stop-color:#0d1117} .s2{stop-color:#111a26}
    .ink{fill:#f0f6fc} .sub{fill:#9fb0c6} .tag{fill:#7DB4F2}
    .frame{stroke:#1f3350} .dot{fill:#7DB4F2;opacity:.22}
    .ring{stroke:#7DB4F2;fill:none;opacity:.35}
    .shield{stroke:#7DB4F2;fill:rgba(125,180,242,.07)}
    .lock{fill:#7DB4F2} .hole{fill:#0d1117}
    .sans{font-family:-apple-system,BlinkMacSystemFont,"Segoe UI",Helvetica,Arial,sans-serif}
    .mono{font-family:ui-monospace,SFMono-Regular,Menlo,Consolas,monospace}
    .spin{transform-box:fill-box;transform-origin:center;animation:spin 40s linear infinite}
    .spinr{transform-box:fill-box;transform-origin:center;animation:spin 55s linear infinite reverse}
    @keyframes spin{to{transform:rotate(360deg)}}
    .sweep{animation:sweep 3.6s ease-in-out infinite}
    @keyframes sweep{0%{transform:translateY(-70px)}100%{transform:translateY(190px)}}
    .blink{animation:blink 1.1s steps(1) infinite}
    @keyframes blink{50%{opacity:0}}
    @media (prefers-color-scheme: light){
      .s1{stop-color:#f6f8fa} .s2{stop-color:#e6eefb}
      .ink{fill:#1f2328} .sub{fill:#57606a} .tag{fill:#2a62b0}
      .frame{stroke:#bcd3f0} .dot{opacity:.35}
      .ring{opacity:.5} .shield{fill:rgba(125,180,242,.12)}
      .hole{fill:#f6f8fa}
    }
    @media (prefers-reduced-motion: reduce){ .spin,.spinr,.sweep,.blink{animation:none} }
  </style>

  <rect x="1" y="1" width="1198" height="318" rx="22" fill="url(#bg)" class="frame" stroke-width="1.5"/>
  <rect x="1" y="1" width="1198" height="318" rx="22" fill="url(#glow)"/>

  <!-- text -->
  <text x="70" y="108" class="mono tag" font-size="18" letter-spacing="2">$ WHOAMI</text>
  <text x="66" y="188" class="sans ink" font-size="88" font-weight="800" letter-spacing="-2">Aditya Shrestha</text>
  <rect x="70" y="208" width="84" height="5" rx="2.5" fill="#7DB4F2"/>
  <text x="70" y="252" class="mono tag" font-size="18" letter-spacing="4">BUILD  &#183;  TEST  &#183;  BREAK  &#183;  UNDERSTAND<tspan class="blink">_</tspan></text>

  <!-- rings -->
  <circle class="ring spin"  cx="960" cy="160" r="132" stroke-width="1.2" stroke-dasharray="3 9"/>
  <circle class="ring spinr" cx="960" cy="160" r="108" stroke-width="1"   stroke-dasharray="14 10"/>

  <!-- shield -->
  <path class="shield" stroke-width="2.5" d="M960 65 L1035 92 V165 C1035 210 1000 238 960 255 C920 238 885 210 885 165 V92 Z"/>
  <g clip-path="url(#shield)">
    <g class="dot">
      <circle cx="880" cy="60" r="1.6"/>
      <circle cx="880" cy="74" r="1.6"/>
      <circle cx="880" cy="88" r="1.6"/>
      <circle cx="880" cy="102" r="1.6"/>
      <circle cx="880" cy="116" r="1.6"/>
      <circle cx="880" cy="130" r="1.6"/>
      <circle cx="880" cy="144" r="1.6"/>
      <circle cx="880" cy="158" r="1.6"/>
      <circle cx="880" cy="172" r="1.6"/>
      <circle cx="880" cy="186" r="1.6"/>
      <circle cx="880" cy="200" r="1.6"/>
      <circle cx="880" cy="214" r="1.6"/>
      <circle cx="880" cy="228" r="1.6"/>
      <circle cx="880" cy="242" r="1.6"/>
      <circle cx="880" cy="256" r="1.6"/>
      <circle cx="894" cy="60" r="1.6"/>
      <circle cx="894" cy="74" r="1.6"/>
      <circle cx="894" cy="88" r="1.6"/>
      <circle cx="894" cy="102" r="1.6"/>
      <circle cx="894" cy="116" r="1.6"/>
      <circle cx="894" cy="130" r="1.6"/>
      <circle cx="894" cy="144" r="1.6"/>
      <circle cx="894" cy="158" r="1.6"/>
      <circle cx="894" cy="172" r="1.6"/>
      <circle cx="894" cy="186" r="1.6"/>
      <circle cx="894" cy="200" r="1.6"/>
      <circle cx="894" cy="214" r="1.6"/>
      <circle cx="894" cy="228" r="1.6"/>
      <circle cx="894" cy="242" r="1.6"/>
      <circle cx="894" cy="256" r="1.6"/>
      <circle cx="908" cy="60" r="1.6"/>
      <circle cx="908" cy="74" r="1.6"/>
      <circle cx="908" cy="88" r="1.6"/>
      <circle cx="908" cy="102" r="1.6"/>
      <circle cx="908" cy="116" r="1.6"/>
      <circle cx="908" cy="130" r="1.6"/>
      <circle cx="908" cy="144" r="1.6"/>
      <circle cx="908" cy="158" r="1.6"/>
      <circle cx="908" cy="172" r="1.6"/>
      <circle cx="908" cy="186" r="1.6"/>
      <circle cx="908" cy="200" r="1.6"/>
      <circle cx="908" cy="214" r="1.6"/>
      <circle cx="908" cy="228" r="1.6"/>
      <circle cx="908" cy="242" r="1.6"/>
      <circle cx="908" cy="256" r="1.6"/>
      <circle cx="922" cy="60" r="1.6"/>
      <circle cx="922" cy="74" r="1.6"/>
      <circle cx="922" cy="88" r="1.6"/>
      <circle cx="922" cy="102" r="1.6"/>
      <circle cx="922" cy="116" r="1.6"/>
      <circle cx="922" cy="130" r="1.6"/>
      <circle cx="922" cy="144" r="1.6"/>
      <circle cx="922" cy="158" r="1.6"/>
      <circle cx="922" cy="172" r="1.6"/>
      <circle cx="922" cy="186" r="1.6"/>
      <circle cx="922" cy="200" r="1.6"/>
      <circle cx="922" cy="214" r="1.6"/>
      <circle cx="922" cy="228" r="1.6"/>
      <circle cx="922" cy="242" r="1.6"/>
      <circle cx="922" cy="256" r="1.6"/>
      <circle cx="936" cy="60" r="1.6"/>
      <circle cx="936" cy="74" r="1.6"/>
      <circle cx="936" cy="88" r="1.6"/>
      <circle cx="936" cy="102" r="1.6"/>
      <circle cx="936" cy="116" r="1.6"/>
      <circle cx="936" cy="130" r="1.6"/>
      <circle cx="936" cy="144" r="1.6"/>
      <circle cx="936" cy="158" r="1.6"/>
      <circle cx="936" cy="172" r="1.6"/>
      <circle cx="936" cy="186" r="1.6"/>
      <circle cx="936" cy="200" r="1.6"/>
      <circle cx="936" cy="214" r="1.6"/>
      <circle cx="936" cy="228" r="1.6"/>
      <circle cx="936" cy="242" r="1.6"/>
      <circle cx="936" cy="256" r="1.6"/>
      <circle cx="950" cy="60" r="1.6"/>
      <circle cx="950" cy="74" r="1.6"/>
      <circle cx="950" cy="88" r="1.6"/>
      <circle cx="950" cy="102" r="1.6"/>
      <circle cx="950" cy="116" r="1.6"/>
      <circle cx="950" cy="130" r="1.6"/>
      <circle cx="950" cy="144" r="1.6"/>
      <circle cx="950" cy="158" r="1.6"/>
      <circle cx="950" cy="172" r="1.6"/>
      <circle cx="950" cy="186" r="1.6"/>
      <circle cx="950" cy="200" r="1.6"/>
      <circle cx="950" cy="214" r="1.6"/>
      <circle cx="950" cy="228" r="1.6"/>
      <circle cx="950" cy="242" r="1.6"/>
      <circle cx="950" cy="256" r="1.6"/>
      <circle cx="964" cy="60" r="1.6"/>
      <circle cx="964" cy="74" r="1.6"/>
      <circle cx="964" cy="88" r="1.6"/>
      <circle cx="964" cy="102" r="1.6"/>
      <circle cx="964" cy="116" r="1.6"/>
      <circle cx="964" cy="130" r="1.6"/>
      <circle cx="964" cy="144" r="1.6"/>
      <circle cx="964" cy="158" r="1.6"/>
      <circle cx="964" cy="172" r="1.6"/>
      <circle cx="964" cy="186" r="1.6"/>
      <circle cx="964" cy="200" r="1.6"/>
      <circle cx="964" cy="214" r="1.6"/>
      <circle cx="964" cy="228" r="1.6"/>
      <circle cx="964" cy="242" r="1.6"/>
      <circle cx="964" cy="256" r="1.6"/>
      <circle cx="978" cy="60" r="1.6"/>
      <circle cx="978" cy="74" r="1.6"/>
      <circle cx="978" cy="88" r="1.6"/>
      <circle cx="978" cy="102" r="1.6"/>
      <circle cx="978" cy="116" r="1.6"/>
      <circle cx="978" cy="130" r="1.6"/>
      <circle cx="978" cy="144" r="1.6"/>
      <circle cx="978" cy="158" r="1.6"/>
      <circle cx="978" cy="172" r="1.6"/>
      <circle cx="978" cy="186" r="1.6"/>
      <circle cx="978" cy="200" r="1.6"/>
      <circle cx="978" cy="214" r="1.6"/>
      <circle cx="978" cy="228" r="1.6"/>
      <circle cx="978" cy="242" r="1.6"/>
      <circle cx="978" cy="256" r="1.6"/>
      <circle cx="992" cy="60" r="1.6"/>
      <circle cx="992" cy="74" r="1.6"/>
      <circle cx="992" cy="88" r="1.6"/>
      <circle cx="992" cy="102" r="1.6"/>
      <circle cx="992" cy="116" r="1.6"/>
      <circle cx="992" cy="130" r="1.6"/>
      <circle cx="992" cy="144" r="1.6"/>
      <circle cx="992" cy="158" r="1.6"/>
      <circle cx="992" cy="172" r="1.6"/>
      <circle cx="992" cy="186" r="1.6"/>
      <circle cx="992" cy="200" r="1.6"/>
      <circle cx="992" cy="214" r="1.6"/>
      <circle cx="992" cy="228" r="1.6"/>
      <circle cx="992" cy="242" r="1.6"/>
      <circle cx="992" cy="256" r="1.6"/>
      <circle cx="1006" cy="60" r="1.6"/>
      <circle cx="1006" cy="74" r="1.6"/>
      <circle cx="1006" cy="88" r="1.6"/>
      <circle cx="1006" cy="102" r="1.6"/>
      <circle cx="1006" cy="116" r="1.6"/>
      <circle cx="1006" cy="130" r="1.6"/>
      <circle cx="1006" cy="144" r="1.6"/>
      <circle cx="1006" cy="158" r="1.6"/>
      <circle cx="1006" cy="172" r="1.6"/>
      <circle cx="1006" cy="186" r="1.6"/>
      <circle cx="1006" cy="200" r="1.6"/>
      <circle cx="1006" cy="214" r="1.6"/>
      <circle cx="1006" cy="228" r="1.6"/>
      <circle cx="1006" cy="242" r="1.6"/>
      <circle cx="1006" cy="256" r="1.6"/>
      <circle cx="1020" cy="60" r="1.6"/>
      <circle cx="1020" cy="74" r="1.6"/>
      <circle cx="1020" cy="88" r="1.6"/>
      <circle cx="1020" cy="102" r="1.6"/>
      <circle cx="1020" cy="116" r="1.6"/>
      <circle cx="1020" cy="130" r="1.6"/>
      <circle cx="1020" cy="144" r="1.6"/>
      <circle cx="1020" cy="158" r="1.6"/>
      <circle cx="1020" cy="172" r="1.6"/>
      <circle cx="1020" cy="186" r="1.6"/>
      <circle cx="1020" cy="200" r="1.6"/>
      <circle cx="1020" cy="214" r="1.6"/>
      <circle cx="1020" cy="228" r="1.6"/>
      <circle cx="1020" cy="242" r="1.6"/>
      <circle cx="1020" cy="256" r="1.6"/>
      <circle cx="1034" cy="60" r="1.6"/>
      <circle cx="1034" cy="74" r="1.6"/>
      <circle cx="1034" cy="88" r="1.6"/>
      <circle cx="1034" cy="102" r="1.6"/>
      <circle cx="1034" cy="116" r="1.6"/>
      <circle cx="1034" cy="130" r="1.6"/>
      <circle cx="1034" cy="144" r="1.6"/>
      <circle cx="1034" cy="158" r="1.6"/>
      <circle cx="1034" cy="172" r="1.6"/>
      <circle cx="1034" cy="186" r="1.6"/>
      <circle cx="1034" cy="200" r="1.6"/>
      <circle cx="1034" cy="214" r="1.6"/>
      <circle cx="1034" cy="228" r="1.6"/>
      <circle cx="1034" cy="242" r="1.6"/>
      <circle cx="1034" cy="256" r="1.6"/>
    </g>
    <rect class="sweep" x="880" y="65" width="160" height="26" fill="url(#scan)"/>
  </g>

  <!-- padlock -->
  <path d="M941 150 V138 a19 19 0 0 1 38 0 V150" fill="none" stroke="#7DB4F2" stroke-width="6" stroke-linecap="round"/>
  <rect class="lock" x="931" y="148" width="58" height="46" rx="8"/>
  <circle class="hole" cx="960" cy="167" r="6.5"/>
  <rect class="hole" x="957" y="169" width="6" height="14" rx="2"/>
</svg>
